<?xml version="1.0" encoding="UTF-8" standalone="no"?>
<svg
   width="16"
   height="16"
   fill="currentColor"
   class="bi bi-pencil"
   viewBox="0 0 16 16"
   version="1.1"
   id="svg434"
   sodipodi:docname="nopencil.svg"
   xml:space="preserve"
   inkscape:version="1.2.2 (732a01da63, 2022-12-09)"
   xmlns:inkscape="http://www.inkscape.org/namespaces/inkscape"
   xmlns:sodipodi="http://sodipodi.sourceforge.net/DTD/sodipodi-0.dtd"
   xmlns="http://www.w3.org/2000/svg"
   xmlns:svg="http://www.w3.org/2000/svg"><defs
     id="defs438" /><sodipodi:namedview
     id="namedview436"
     pagecolor="#000000"
     bordercolor="#000000"
     borderopacity="0.25"
     inkscape:showpageshadow="2"
     inkscape:pageopacity="0"
     inkscape:pagecheckerboard="0"
     inkscape:deskcolor="#d1d1d1"
     showgrid="false"
     inkscape:zoom="18.495262"
     inkscape:cx="16.247405"
     inkscape:cy="1.4598334"
     inkscape:window-width="1920"
     inkscape:window-height="1017"
     inkscape:window-x="-8"
     inkscape:window-y="-8"
     inkscape:window-maximized="1"
     inkscape:current-layer="svg434" /><g
     style="fill:#ffffff"
     id="g607"
     transform="translate(-1.9410907e-4,3.9322687e-4)"><path
       d="m 12.854,0.146 a 0.5,0.5 0 0 0 -0.707,0 L 10.5,1.793 14.207,5.5 15.854,3.854 a 0.5,0.5 0 0 0 0,-0.708 z M 13.5,6.207 9.793,2.5 3.293,9 H 3.5 A 0.5,0.5 0 0 1 4,9.5 V 10 H 4.5 A 0.5,0.5 0 0 1 5,10.5 V 11 H 5.5 A 0.5,0.5 0 0 1 6,11.5 V 12 H 6.5 A 0.5,0.5 0 0 1 7,12.5 v 0.207 z M 6.032,13.675 A 0.5,0.5 0 0 1 6,13.5 V 13 H 5.5 A 0.5,0.5 0 0 1 5,12.5 V 12 H 4.5 A 0.5,0.5 0 0 1 4,11.5 V 11 H 3.5 A 0.5,0.5 0 0 1 3,10.5 V 10 H 2.5 A 0.499,0.499 0 0 1 2.325,9.968 l -0.179,0.178 a 0.5,0.5 0 0 0 -0.11,0.168 l -2,5 a 0.5,0.5 0 0 0 0.65,0.65 l 5,-2 a 0.5,0.5 0 0 0 0.168,-0.11 l 0.178,-0.178 z"
       id="path598"
       style="fill:#ffffff" /></g><g
     style="fill:#ffffff"
     id="g636"
     transform="matrix(0.85724177,0,0,0.85724177,6.1431782,6.1431782)"><path
       d="m 4.646,4.646 a 0.5,0.5 0 0 1 0.708,0 L 8,7.293 10.646,4.646 a 0.5006316,0.5006316 0 0 1 0.708,0.708 L 8.707,8 l 2.647,2.646 a 0.5006316,0.5006316 0 0 1 -0.708,0.708 L 8,8.707 5.354,11.354 A 0.5006316,0.5006316 0 0 1 4.646,10.646 L 7.293,8 4.646,5.354 a 0.5,0.5 0 0 1 0,-0.708 z"
       id="path627"
       style="fill:#ffffff" /></g></svg>
