<?xml version="1.0" encoding="UTF-8" standalone="no"?>
<svg
   width="16"
   height="16"
   fill="currentColor"
   class="bi bi-pentagon"
   viewBox="0 0 16 16"
   version="1.1"
   id="svg4"
   sodipodi:docname="polygon.svg"
   xml:space="preserve"
   inkscape:version="1.2.2 (732a01da63, 2022-12-09)"
   xmlns:inkscape="http://www.inkscape.org/namespaces/inkscape"
   xmlns:sodipodi="http://sodipodi.sourceforge.net/DTD/sodipodi-0.dtd"
   xmlns="http://www.w3.org/2000/svg"
   xmlns:svg="http://www.w3.org/2000/svg"><defs
     id="defs8" /><sodipodi:namedview
     id="namedview6"
     pagecolor="#ffffff"
     bordercolor="#000000"
     borderopacity="0.25"
     inkscape:showpageshadow="2"
     inkscape:pageopacity="0.0"
     inkscape:pagecheckerboard="0"
     inkscape:deskcolor="#d1d1d1"
     showgrid="false"
     inkscape:zoom="36.990524"
     inkscape:cx="3.4197948"
     inkscape:cy="8.2453549"
     inkscape:window-width="1920"
     inkscape:window-height="1017"
     inkscape:window-x="-8"
     inkscape:window-y="-8"
     inkscape:window-maximized="1"
     inkscape:current-layer="svg4" /><path
     d="m 7.701512,1.824597 a 0.47341305,0.47303366 0 0 1 0.5965,0 l 5.929972,4.8135905 a 0.47341305,0.47303366 0 0 1 0.152439,0.5099303 L 12.14402,14.223756 a 0.47341305,0.47303366 0 0 1 -0.450689,0.330177 H 4.3061933 A 0.47341305,0.47303366 0 0 1 3.8555041,14.22281 L 1.618154,7.1490638 A 0.47341305,0.47303366 0 0 1 1.770593,6.6381875 L 7.700565,1.825543 Z m 7.776283,4.9952354 A 0.47341305,0.47303366 0 0 0 15.324409,6.308956 L 8.298959,0.60606228 a 0.47341305,0.47303366 0 0 0 -0.597447,0 L 0.6751152,6.3099021 A 0.47341305,0.47303366 0 0 0 0.5217294,6.8188863 L 3.1614806,15.169823 A 0.47341305,0.47303366 0 0 0 3.6121698,15.5 h 8.7751842 a 0.47341305,0.47303366 0 0 0 0.45069,-0.331123 l 2.639751,-8.3499907 z"
     id="path2"
     style="stroke-width:0.946447;fill:#ffffff" /><g
     style="fill:#ffffff"
     id="g246"
     transform="matrix(0.99066771,0,0,0.98252788,4.6580322,-2.7192213)"><path
       d="m 3.3734514,5.7675767 a 1.5,1.5 0 1 0 0,-3 1.5,1.5 0 0 0 0,3 z"
       id="path237"
       style="fill:#ffffff" /><path
       d="m 7.4111322,19.052908 a 1.5,1.5 0 1 0 0,-3 1.5,1.5 0 0 0 0,3 z"
       id="path237-6"
       style="fill:#ffffff" /><path
       d="m -0.66422942,19.052908 a 1.5,1.5 0 1 0 0,-3 1.5,1.5 0 0 0 0,3 z"
       id="path237-5"
       style="fill:#ffffff" /><path
       d="m 9.9498207,11.33506 a 1.5000001,1.5000001 0 1 0 0,-2.9999991 1.5000001,1.5000001 0 0 0 0,2.9999991 z"
       id="path237-1"
       style="fill:#ffffff" /><path
       d="m -3.2019117,11.335061 a 1.5000001,1.5000002 0 1 0 0,-3.0000002 1.5000001,1.5000002 0 0 0 0,3.0000002 z"
       id="path237-7"
       style="fill:#ffffff" /></g></svg>
