<?xml version="1.0" encoding="UTF-8" standalone="no"?>
<svg
   width="16"
   height="16"
   fill="currentColor"
   class="bi bi-pentagon"
   viewBox="0 0 16 16"
   version="1.1"
   id="svg4"
   sodipodi:docname="rotation.svg"
   xml:space="preserve"
   inkscape:version="1.2.2 (732a01da63, 2022-12-09)"
   xmlns:inkscape="http://www.inkscape.org/namespaces/inkscape"
   xmlns:sodipodi="http://sodipodi.sourceforge.net/DTD/sodipodi-0.dtd"
   xmlns="http://www.w3.org/2000/svg"
   xmlns:svg="http://www.w3.org/2000/svg"><defs
     id="defs8" /><sodipodi:namedview
     id="namedview6"
     pagecolor="#ffffff"
     bordercolor="#000000"
     borderopacity="0.25"
     inkscape:showpageshadow="2"
     inkscape:pageopacity="0.0"
     inkscape:pagecheckerboard="0"
     inkscape:deskcolor="#d1d1d1"
     showgrid="false"
     inkscape:zoom="18.495262"
     inkscape:cx="-9.4889167"
     inkscape:cy="13.40884"
     inkscape:window-width="1920"
     inkscape:window-height="1017"
     inkscape:window-x="-8"
     inkscape:window-y="-8"
     inkscape:window-maximized="1"
     inkscape:current-layer="svg4" /><g
     style="fill:#ffffff"
     id="g246"
     transform="matrix(0.99066771,0,0,0.98252788,4.6580322,-2.7192213)" /><g
     style="fill:#ffffff"
     id="g459"
     transform="translate(-0.99936841,-0.9993684)" /><path
     d="M 9.0628049,16 Q 8.0193266,16 7.1304377,15.777778 6.241549,15.555556 5.487926,15.014493 5.275365,14.859903 5.256042,14.589372 5.236722,14.318841 5.449278,14.10628 q 0.15459,-0.154589 0.36715,-0.173913 0.21256,-0.01932 0.386473,0.09662 0.618358,0.405797 1.323672,0.608695 0.705314,0.202899 1.5362319,0.202899 2.3574881,0 4.0676331,-1.719807 1.710145,-1.719807 1.710145,-4.0772947 0,-2.357488 -1.729469,-4.1159421 -1.729468,-1.758454 -4.0869565,-1.758454 H 8.4251237 l 1.0241546,1.0241545 q 0.173913,0.1739131 0.173913,0.4057971 0,0.2318841 -0.173913,0.4057971 -0.1739131,0.1739131 -0.4057971,0.1739131 -0.2318841,0 -0.4057971,-0.1739131 L 6.628022,2.9951692 Q 6.531402,2.8985508 6.492757,2.7922706 6.454107,2.6859905 6.454107,2.5893721 q 0,-0.115942 0.03865,-0.2125604 0.03865,-0.096618 0.135265,-0.1932367 L 8.6376841,0.17391304 Q 8.8115971,0 9.0434812,0 q 0.231884,0 0.4057971,0.17391304 0.173913,0.17391305 0.173913,0.4057971 0,0.23188406 -0.173913,0.40579711 L 8.4251237,2.009662 h 0.5990338 q 1.4299515,0 2.6956525,0.5700483 1.2657,0.5700483 2.21256,1.5265699 0.94686,0.9565217 1.507247,2.2318841 0.560386,1.2753623 0.560386,2.705314 0,2.8599037 -2.038647,4.9082127 Q 11.922708,16 9.0628049,16 Z M 4.057974,13.062802 q -0.115942,0 -0.21256,-0.03865 -0.09662,-0.03865 -0.193237,-0.135266 L 0.173916,9.410628 Q 0.077296,9.3140097 0.03865,9.2173913 0,9.1207729 0,9.0048309 0,8.8888889 0.03865,8.7922705 0.0773,8.6956522 0.173916,8.5990338 L 3.652177,5.1207729 q 0.09662,-0.096618 0.193237,-0.1352657 0.09662,-0.038647 0.21256,-0.038647 0.115942,0 0.21256,0.038647 0.09662,0.038647 0.193237,0.1352657 l 3.4782609,3.4782609 q 0.096618,0.096618 0.1352657,0.1932367 0.038647,0.096618 0.038647,0.2125604 0,0.115942 -0.038647,0.2125604 -0.038647,0.096618 -0.1352657,0.1932367 L 4.463771,12.888889 q -0.09662,0.09662 -0.193237,0.135266 -0.09662,0.03865 -0.21256,0.03865 z m 0,-1.352657 L 6.685993,9.0821256 4.057974,6.4541063 1.429955,9.0821256 Z m 0,-2.6280194 z"
     id="path1342"
     style="stroke-width:0.0193237;fill:#ffffff" /></svg>
