<?xml version="1.0" encoding="UTF-8" standalone="no"?>
<svg
   width="16"
   height="16"
   fill="currentColor"
   class="bi bi-pentagon"
   viewBox="0 0 16 16"
   version="1.1"
   id="svg4"
   sodipodi:docname="segment.svg"
   xml:space="preserve"
   inkscape:version="1.2.2 (732a01da63, 2022-12-09)"
   xmlns:inkscape="http://www.inkscape.org/namespaces/inkscape"
   xmlns:sodipodi="http://sodipodi.sourceforge.net/DTD/sodipodi-0.dtd"
   xmlns="http://www.w3.org/2000/svg"
   xmlns:svg="http://www.w3.org/2000/svg"><defs
     id="defs8" /><sodipodi:namedview
     id="namedview6"
     pagecolor="#ffffff"
     bordercolor="#000000"
     borderopacity="0.25"
     inkscape:showpageshadow="2"
     inkscape:pageopacity="0.0"
     inkscape:pagecheckerboard="0"
     inkscape:deskcolor="#d1d1d1"
     showgrid="false"
     inkscape:zoom="18.495262"
     inkscape:cx="-8.4616266"
     inkscape:cy="13.40884"
     inkscape:window-width="1920"
     inkscape:window-height="1017"
     inkscape:window-x="-8"
     inkscape:window-y="-8"
     inkscape:window-maximized="1"
     inkscape:current-layer="svg4" /><g
     style="fill:#ffffff"
     id="g246"
     transform="matrix(0.99066771,0,0,0.98252788,4.6580322,-2.7192213)" /><g
     style="fill:#ffffff"
     id="g415"><path
       d="m 3,14.5 a 1.5,1.5 0 1 1 -3,0 1.5,1.5 0 0 1 3,0 z"
       id="path403"
       style="fill:#ffffff" /><path
       d="m 16,1.5 a 1.5,1.5 0 1 1 -3,0 1.5,1.5 0 0 1 3,0 z"
       id="path403-8"
       style="fill:#ffffff" /></g><g
     style="fill:#ffffff"
     id="g459"
     transform="translate(-0.99936841,-0.9993684)" /><g
     style="fill:#ffffff"
     id="g539"
     transform="matrix(1.1665184,0,0,1.1665184,-1.3323,-1.3319942)"><path
       fill-rule="evenodd"
       d="m 13.854,2.146 a 0.5,0.5 0 0 1 0,0.708 l -11,11 A 0.5006316,0.5006316 0 0 1 2.146,13.146 l 11,-11 a 0.5,0.5 0 0 1 0.708,0 z"
       id="path530"
       style="fill:#ffffff" /></g></svg>
