<?xml version="1.0" encoding="UTF-8" standalone="no"?>
<svg
   width="16"
   height="16"
   fill="currentColor"
   class="bi bi-pentagon"
   viewBox="0 0 16 16"
   version="1.1"
   id="svg4"
   sodipodi:docname="symmetry.svg"
   xml:space="preserve"
   inkscape:version="1.2.2 (732a01da63, 2022-12-09)"
   xmlns:inkscape="http://www.inkscape.org/namespaces/inkscape"
   xmlns:sodipodi="http://sodipodi.sourceforge.net/DTD/sodipodi-0.dtd"
   xmlns="http://www.w3.org/2000/svg"
   xmlns:svg="http://www.w3.org/2000/svg"><defs
     id="defs8" /><sodipodi:namedview
     id="namedview6"
     pagecolor="#ffffff"
     bordercolor="#000000"
     borderopacity="0.25"
     inkscape:showpageshadow="2"
     inkscape:pageopacity="0.0"
     inkscape:pagecheckerboard="0"
     inkscape:deskcolor="#d1d1d1"
     showgrid="false"
     inkscape:zoom="18.495262"
     inkscape:cx="-16.301472"
     inkscape:cy="4.2172963"
     inkscape:window-width="1920"
     inkscape:window-height="1017"
     inkscape:window-x="-8"
     inkscape:window-y="-8"
     inkscape:window-maximized="1"
     inkscape:current-layer="svg4" /><g
     style="fill:#ffffff"
     id="g734"
     transform="rotate(-90,5,10.5)"><path
       d="M 0,13.5 A 0.5,0.5 0 0 1 0.5,13 h 2 a 0.5,0.5 0 0 1 0,1 h -2 A 0.5,0.5 0 0 1 0,13.5 Z m 4,0 A 0.5,0.5 0 0 1 4.5,13 h 2 a 0.5,0.5 0 0 1 0,1 h -2 A 0.5,0.5 0 0 1 4,13.5 Z m 4,0 A 0.5,0.5 0 0 1 8.5,13 h 2 a 0.5,0.5 0 0 1 0,1 h -2 A 0.5,0.5 0 0 1 8,13.5 Z m 4,0 A 0.5,0.5 0 0 1 12.5,13 h 2 a 0.5,0.5 0 0 1 0,1 h -2 A 0.5,0.5 0 0 1 12,13.5 Z"
       id="path725"
       style="fill:#ffffff" /></g><path
     d="M 0.163966,11.122805 C 0.109306,11.068155 0.068316,11.008941 0.040993,10.945173 0.013663,10.881403 3e-6,10.803977 3e-6,10.712886 L 0,5.7938843 C 0,5.7027913 0.01366,5.6253621 0.04099,5.5615978 0.06832,5.4978318 0.10931,5.4386209 0.163964,5.3839652 0.218614,5.3293102 0.27783,5.2883192 0.341596,5.260992 0.405366,5.233665 0.482791,5.220001 0.573883,5.22 l 4.9190035,1e-7 c 0.091093,9e-7 0.1685221,0.013665 0.2322865,0.040992 0.063765,0.027329 0.1229754,0.06832 0.1776302,0.1229751 0.054655,0.054655 0.095647,0.1138654 0.122975,0.1776301 0.027329,0.063765 0.040993,0.1411942 0.040992,0.2322865 v 4.9190042 c 0,0.09109 -0.013664,0.168521 -0.040992,0.232286 -0.027328,0.06377 -0.06832,0.122977 -0.1229754,0.17763 -0.054655,0.05465 -0.1138655,0.09565 -0.1776304,0.122976 -0.063765,0.02733 -0.1411934,0.04099 -0.2322863,0.04099 H 0.573882 c -0.09109,0 -0.168523,-0.01366 -0.232286,-0.04099 -0.06377,-0.02733 -0.122978,-0.06832 -0.177633,-0.122973 z m 0.956473,-0.956473 h 3.7165805 l 2e-7,-3.7165805 -3.7165807,2e-7 z"
     id="path1342"
     style="fill:#ffffff;stroke-width:0.0193237"
     sodipodi:nodetypes="cscccssccssscssscsssccccccc" /><path
     d="m 10.097966,11.122805 c -0.05466,-0.05465 -0.09565,-0.113864 -0.122973,-0.177632 -0.02733,-0.06377 -0.04099,-0.141196 -0.04099,-0.232287 L 9.934,5.7938843 c 0,-0.091093 0.01366,-0.1685222 0.04099,-0.2322865 0.02733,-0.063766 0.06832,-0.1229769 0.122974,-0.1776326 0.05465,-0.054655 0.113866,-0.095646 0.177632,-0.1229732 C 10.339366,5.233665 10.416791,5.220001 10.507883,5.22 l 4.919003,1e-7 c 0.09109,9e-7 0.168523,0.013665 0.232287,0.040992 0.06377,0.027329 0.122975,0.06832 0.17763,0.1229751 0.05466,0.054655 0.09565,0.1138654 0.122975,0.1776301 0.02733,0.063765 0.04099,0.1411942 0.04099,0.2322865 v 4.9190042 c 0,0.09109 -0.01366,0.168521 -0.04099,0.232286 -0.02733,0.06377 -0.06832,0.122977 -0.122975,0.17763 -0.05466,0.05465 -0.113866,0.09565 -0.177631,0.122976 -0.06377,0.02733 -0.141193,0.04099 -0.232286,0.04099 h -4.919004 c -0.09109,0 -0.168523,-0.01366 -0.232286,-0.04099 -0.06377,-0.02733 -0.122978,-0.06832 -0.177633,-0.122973 z m 0.956473,-0.956473 H 14.77102 V 6.4497515 l -3.716581,2e-7 z"
     id="path1342-1"
     style="fill:#ffffff;stroke-width:0.0193237"
     sodipodi:nodetypes="cscccssccssscssscsssccccccc" /></svg>
