<?xml version="1.0" encoding="UTF-8" standalone="no"?>
<svg
   width="16"
   height="16"
   fill="currentColor"
   class="bi bi-pentagon"
   viewBox="0 0 16 16"
   version="1.1"
   id="svg4"
   sodipodi:docname="translation.svg"
   xml:space="preserve"
   inkscape:version="1.2.2 (732a01da63, 2022-12-09)"
   xmlns:inkscape="http://www.inkscape.org/namespaces/inkscape"
   xmlns:sodipodi="http://sodipodi.sourceforge.net/DTD/sodipodi-0.dtd"
   xmlns="http://www.w3.org/2000/svg"
   xmlns:svg="http://www.w3.org/2000/svg"><defs
     id="defs8" /><sodipodi:namedview
     id="namedview6"
     pagecolor="#ffffff"
     bordercolor="#000000"
     borderopacity="0.25"
     inkscape:showpageshadow="2"
     inkscape:pageopacity="0.0"
     inkscape:pagecheckerboard="0"
     inkscape:deskcolor="#d1d1d1"
     showgrid="false"
     inkscape:zoom="18.495262"
     inkscape:cx="-9.4889167"
     inkscape:cy="13.40884"
     inkscape:window-width="1920"
     inkscape:window-height="1017"
     inkscape:window-x="-8"
     inkscape:window-y="-8"
     inkscape:window-maximized="1"
     inkscape:current-layer="svg4" /><g
     style="fill:#000000"
     id="g246"
     transform="matrix(0.99066771,0,0,0.98252788,4.6580322,-2.7192213)" /><g
     style="fill:#000000"
     id="g459"
     transform="translate(-0.99936841,-0.9993684)" /><path
     d="M 13.672316,8.6666667 H 7.8870052 c -0.1920904,0 -0.3531073,-0.064259 -0.4830508,-0.1927778 C 7.2740108,8.3453556 7.2090391,8.1860964 7.2090391,7.9961111 c 0,-0.19 0.064972,-0.3479631 0.1949153,-0.4738889 C 7.5338979,7.3962964 7.6949148,7.3333333 7.8870052,7.3333333 H 13.672316 L 12.497175,6.1555556 c -0.120527,-0.1333334 -0.184557,-0.2888889 -0.19209,-0.4666667 -0.0075,-0.1777778 0.0565,-0.3333333 0.19209,-0.4666667 0.135593,-0.1333333 0.293785,-0.2 0.474576,-0.2 0.180791,0 0.338983,0.066667 0.474577,0.2 L 15.79661,7.5333333 C 15.932203,7.6666667 16,7.8222222 16,8 16,8.1777778 15.9322,8.3333333 15.79661,8.4666667 l -2.350282,2.3111113 c -0.135594,0.133333 -0.293786,0.2 -0.474577,0.2 -0.180791,0 -0.338983,-0.06667 -0.474576,-0.2 -0.135593,-0.133334 -0.199623,-0.288889 -0.19209,-0.466667 0.0075,-0.177778 0.07156,-0.3333332 0.19209,-0.4666666 z"
     id="path1357"
     style="stroke-width:0.0224097;fill:#ffffff"
     sodipodi:nodetypes="cscsssccssssssssssscc" /><path
     d="M 0.37661123,10.924805 C 0.32195563,10.870152 0.28096466,10.810941 0.25363833,10.747173 0.226311,10.683406 0.2126471,10.605977 0.21264663,10.514886 l -2.2e-6,-4.9190017 c -8e-7,-0.091093 0.0136632,-0.1685222 0.040992,-0.2322865 0.0273267,-0.063766 0.0683177,-0.1229769 0.1229732,-0.1776326 0.0546553,-0.054655 0.1138662,-0.095646 0.1776326,-0.1229732 0.063766,-0.027327 0.14119483,-0.040991 0.2322865,-0.040992 l 4.91900377,10e-8 c 0.091093,9e-7 0.1685221,0.013665 0.2322865,0.040992 0.063765,0.027329 0.1229754,0.06832 0.1776302,0.1229751 0.054655,0.054655 0.095647,0.1138654 0.122975,0.1776301 0.027329,0.063765 0.040993,0.1411942 0.040992,0.2322865 v 4.9190042 c 0,0.09109 -0.013664,0.168521 -0.040992,0.232286 -0.027328,0.06377 -0.06832,0.122977 -0.1229754,0.17763 -0.054655,0.05465 -0.1138655,0.09565 -0.1776304,0.122976 -0.063765,0.02733 -0.1411934,0.04099 -0.2322863,0.04099 H 0.78652833 c -0.0910942,0 -0.1685231,-0.01366 -0.2322867,-0.04099 C 0.49047493,11.02045 0.4312642,10.97946 0.37660933,10.924807 Z M 1.3330841,9.968332 h 3.7165804 l 2e-7,-3.7165805 -3.7165803,2e-7 z"
     id="path1342"
     style="fill:#ffffff;stroke-width:0.0193237"
     sodipodi:nodetypes="cscccssccssscssscsssccccccc" /></svg>
